<?xml version="1.0" encoding="utf-8" standalone="no"?>
<!DOCTYPE svg PUBLIC "-//W3C//DTD SVG 1.1//EN"
  "http://www.w3.org/Graphics/SVG/1.1/DTD/svg11.dtd">
<!-- Created with matplotlib (https://matplotlib.org/) -->
<svg height="198.425197pt" version="1.1" viewBox="0 0 283.464567 198.425197" width="283.464567pt" xmlns="http://www.w3.org/2000/svg" xmlns:xlink="http://www.w3.org/1999/xlink">
 <metadata>
  <rdf:RDF xmlns:cc="http://creativecommons.org/ns#" xmlns:dc="http://purl.org/dc/elements/1.1/" xmlns:rdf="http://www.w3.org/1999/02/22-rdf-syntax-ns#">
   <cc:Work>
    <dc:type rdf:resource="http://purl.org/dc/dcmitype/StillImage"/>
    <dc:date>2021-05-14T11:56:47.312093</dc:date>
    <dc:format>image/svg+xml</dc:format>
    <dc:creator>
     <cc:Agent>
      <dc:title>Matplotlib v3.3.4, https://matplotlib.org/</dc:title>
     </cc:Agent>
    </dc:creator>
   </cc:Work>
  </rdf:RDF>
 </metadata>
 <defs>
  <style type="text/css">*{stroke-linecap:butt;stroke-linejoin:round;}</style>
 </defs>
 <g id="figure_1">
  <g id="patch_1">
   <path d="M 0 198.425197 
L 283.464567 198.425197 
L 283.464567 0 
L 0 0 
z
" style="fill:#ffffff;"/>
  </g>
  <g id="axes_1">
   <g id="patch_2">
    <path d="M 48.188976 168.661417 
L 274.96063 168.661417 
L 274.96063 19.84252 
L 48.188976 19.84252 
z
" style="fill:#ffffff;"/>
   </g>
   <g id="matplotlib.axis_1">
    <g id="xtick_1">
     <g id="line2d_1">
      <defs>
       <path d="M 0 0 
L 0 -5 
" id="m442bd50bb6" style="stroke:#000000;stroke-width:0.5;"/>
      </defs>
      <g>
       <use style="stroke:#000000;stroke-width:0.5;" x="58.496779" xlink:href="#m442bd50bb6" y="168.661417"/>
      </g>
     </g>
     <g id="line2d_2">
      <defs>
       <path d="M 0 0 
L 0 5 
" id="m079eb29c3b" style="stroke:#000000;stroke-width:0.5;"/>
      </defs>
      <g>
       <use style="stroke:#000000;stroke-width:0.5;" x="58.496779" xlink:href="#m079eb29c3b" y="19.84252"/>
      </g>
     </g>
     <g id="text_1">
      <!-- $\mathdefault{0.0}$ -->
      <g transform="translate(52.096779 178.240167)scale(0.08 -0.08)">
       <defs>
        <path d="M 31.78125 3.421875 
Q 39.265625 3.421875 42.96875 11.625 
Q 46.6875 19.828125 46.6875 36.375 
Q 46.6875 52.984375 42.96875 61.1875 
Q 39.265625 69.390625 31.78125 69.390625 
Q 24.3125 69.390625 20.59375 61.1875 
Q 16.890625 52.984375 16.890625 36.375 
Q 16.890625 19.828125 20.59375 11.625 
Q 24.3125 3.421875 31.78125 3.421875 
z
M 31.78125 -1.421875 
Q 19.921875 -1.421875 13.25 8.53125 
Q 6.59375 18.5 6.59375 36.375 
Q 6.59375 54.296875 13.25 64.25 
Q 19.921875 74.21875 31.78125 74.21875 
Q 43.703125 74.21875 50.34375 64.25 
Q 56.984375 54.296875 56.984375 36.375 
Q 56.984375 18.5 50.34375 8.53125 
Q 43.703125 -1.421875 31.78125 -1.421875 
z
" id="DejaVuSerif-48"/>
        <path d="M 9.421875 5.078125 
Q 9.421875 7.8125 11.28125 9.71875 
Q 13.140625 11.625 15.921875 11.625 
Q 18.609375 11.625 20.5 9.71875 
Q 22.40625 7.8125 22.40625 5.078125 
Q 22.40625 2.390625 20.5 0.484375 
Q 18.609375 -1.421875 15.921875 -1.421875 
Q 13.140625 -1.421875 11.28125 0.453125 
Q 9.421875 2.34375 9.421875 5.078125 
z
" id="DejaVuSerif-46"/>
       </defs>
       <use transform="translate(0 0.78125)" xlink:href="#DejaVuSerif-48"/>
       <use transform="translate(63.623047 0.78125)" xlink:href="#DejaVuSerif-46"/>
       <use transform="translate(95.410156 0.78125)" xlink:href="#DejaVuSerif-48"/>
      </g>
     </g>
    </g>
    <g id="xtick_2">
     <g id="line2d_3">
      <g>
       <use style="stroke:#000000;stroke-width:0.5;" x="84.266285" xlink:href="#m442bd50bb6" y="168.661417"/>
      </g>
     </g>
     <g id="line2d_4">
      <g>
       <use style="stroke:#000000;stroke-width:0.5;" x="84.266285" xlink:href="#m079eb29c3b" y="19.84252"/>
      </g>
     </g>
     <g id="text_2">
      <!-- $\mathdefault{2.5}$ -->
      <g transform="translate(77.866285 178.240167)scale(0.08 -0.08)">
       <defs>
        <path d="M 12.796875 55.515625 
L 7.328125 55.515625 
L 7.328125 68.5 
Q 12.546875 71.296875 17.84375 72.75 
Q 23.140625 74.21875 28.21875 74.21875 
Q 39.59375 74.21875 46.1875 68.703125 
Q 52.78125 63.1875 52.78125 53.71875 
Q 52.78125 43.015625 37.84375 28.125 
Q 36.671875 27 36.078125 26.421875 
L 17.671875 8.015625 
L 48.09375 8.015625 
L 48.09375 17 
L 53.8125 17 
L 53.8125 0 
L 6.78125 0 
L 6.78125 5.328125 
L 28.90625 27.390625 
Q 36.234375 34.71875 39.359375 40.84375 
Q 42.484375 46.96875 42.484375 53.71875 
Q 42.484375 61.078125 38.640625 65.234375 
Q 34.8125 69.390625 28.078125 69.390625 
Q 21.09375 69.390625 17.28125 65.921875 
Q 13.484375 62.453125 12.796875 55.515625 
z
" id="DejaVuSerif-50"/>
        <path d="M 50.296875 72.90625 
L 50.296875 64.890625 
L 16.890625 64.890625 
L 16.890625 44 
Q 19.4375 45.75 22.828125 46.625 
Q 26.21875 47.515625 30.421875 47.515625 
Q 42.234375 47.515625 49.0625 40.96875 
Q 55.90625 34.421875 55.90625 23.09375 
Q 55.90625 11.53125 49 5.046875 
Q 42.09375 -1.421875 29.59375 -1.421875 
Q 24.5625 -1.421875 19.28125 -0.1875 
Q 14.015625 1.03125 8.5 3.515625 
L 8.5 17.671875 
L 14.015625 17.671875 
Q 14.453125 10.75 18.421875 7.078125 
Q 22.40625 3.421875 29.59375 3.421875 
Q 37.3125 3.421875 41.453125 8.5 
Q 45.609375 13.578125 45.609375 23.09375 
Q 45.609375 32.5625 41.484375 37.609375 
Q 37.359375 42.671875 29.59375 42.671875 
Q 25.203125 42.671875 21.84375 41.109375 
Q 18.5 39.546875 15.921875 36.28125 
L 11.71875 36.28125 
L 11.71875 72.90625 
z
" id="DejaVuSerif-53"/>
       </defs>
       <use transform="translate(0 0.78125)" xlink:href="#DejaVuSerif-50"/>
       <use transform="translate(63.623047 0.78125)" xlink:href="#DejaVuSerif-46"/>
       <use transform="translate(95.410156 0.78125)" xlink:href="#DejaVuSerif-53"/>
      </g>
     </g>
    </g>
    <g id="xtick_3">
     <g id="line2d_5">
      <g>
       <use style="stroke:#000000;stroke-width:0.5;" x="110.035791" xlink:href="#m442bd50bb6" y="168.661417"/>
      </g>
     </g>
     <g id="line2d_6">
      <g>
       <use style="stroke:#000000;stroke-width:0.5;" x="110.035791" xlink:href="#m079eb29c3b" y="19.84252"/>
      </g>
     </g>
     <g id="text_3">
      <!-- $\mathdefault{5.0}$ -->
      <g transform="translate(103.635791 178.240167)scale(0.08 -0.08)">
       <use transform="translate(0 0.78125)" xlink:href="#DejaVuSerif-53"/>
       <use transform="translate(63.623047 0.78125)" xlink:href="#DejaVuSerif-46"/>
       <use transform="translate(95.410156 0.78125)" xlink:href="#DejaVuSerif-48"/>
      </g>
     </g>
    </g>
    <g id="xtick_4">
     <g id="line2d_7">
      <g>
       <use style="stroke:#000000;stroke-width:0.5;" x="135.805297" xlink:href="#m442bd50bb6" y="168.661417"/>
      </g>
     </g>
     <g id="line2d_8">
      <g>
       <use style="stroke:#000000;stroke-width:0.5;" x="135.805297" xlink:href="#m079eb29c3b" y="19.84252"/>
      </g>
     </g>
     <g id="text_4">
      <!-- $\mathdefault{7.5}$ -->
      <g transform="translate(129.405297 178.240167)scale(0.08 -0.08)">
       <defs>
        <path d="M 56.390625 67.921875 
L 27.875 0 
L 20.609375 0 
L 47.796875 64.890625 
L 14.109375 64.890625 
L 14.109375 55.90625 
L 8.40625 55.90625 
L 8.40625 72.90625 
L 56.390625 72.90625 
z
" id="DejaVuSerif-55"/>
       </defs>
       <use transform="translate(0 0.09375)" xlink:href="#DejaVuSerif-55"/>
       <use transform="translate(63.623047 0.09375)" xlink:href="#DejaVuSerif-46"/>
       <use transform="translate(95.410156 0.09375)" xlink:href="#DejaVuSerif-53"/>
      </g>
     </g>
    </g>
    <g id="xtick_5">
     <g id="line2d_9">
      <g>
       <use style="stroke:#000000;stroke-width:0.5;" x="161.574803" xlink:href="#m442bd50bb6" y="168.661417"/>
      </g>
     </g>
     <g id="line2d_10">
      <g>
       <use style="stroke:#000000;stroke-width:0.5;" x="161.574803" xlink:href="#m079eb29c3b" y="19.84252"/>
      </g>
     </g>
     <g id="text_5">
      <!-- $\mathdefault{10.0}$ -->
      <g transform="translate(152.654803 178.240167)scale(0.08 -0.08)">
       <defs>
        <path d="M 14.203125 0 
L 14.203125 5.171875 
L 26.90625 5.171875 
L 26.90625 65.828125 
L 12.203125 56.296875 
L 12.203125 62.703125 
L 29.984375 74.21875 
L 36.71875 74.21875 
L 36.71875 5.171875 
L 49.421875 5.171875 
L 49.421875 0 
z
" id="DejaVuSerif-49"/>
       </defs>
       <use transform="translate(0 0.78125)" xlink:href="#DejaVuSerif-49"/>
       <use transform="translate(63.623047 0.78125)" xlink:href="#DejaVuSerif-48"/>
       <use transform="translate(127.246094 0.78125)" xlink:href="#DejaVuSerif-46"/>
       <use transform="translate(159.033203 0.78125)" xlink:href="#DejaVuSerif-48"/>
      </g>
     </g>
    </g>
    <g id="xtick_6">
     <g id="line2d_11">
      <g>
       <use style="stroke:#000000;stroke-width:0.5;" x="187.344309" xlink:href="#m442bd50bb6" y="168.661417"/>
      </g>
     </g>
     <g id="line2d_12">
      <g>
       <use style="stroke:#000000;stroke-width:0.5;" x="187.344309" xlink:href="#m079eb29c3b" y="19.84252"/>
      </g>
     </g>
     <g id="text_6">
      <!-- $\mathdefault{12.5}$ -->
      <g transform="translate(178.424309 178.240167)scale(0.08 -0.08)">
       <use transform="translate(0 0.78125)" xlink:href="#DejaVuSerif-49"/>
       <use transform="translate(63.623047 0.78125)" xlink:href="#DejaVuSerif-50"/>
       <use transform="translate(127.246094 0.78125)" xlink:href="#DejaVuSerif-46"/>
       <use transform="translate(159.033203 0.78125)" xlink:href="#DejaVuSerif-53"/>
      </g>
     </g>
    </g>
    <g id="xtick_7">
     <g id="line2d_13">
      <g>
       <use style="stroke:#000000;stroke-width:0.5;" x="213.113815" xlink:href="#m442bd50bb6" y="168.661417"/>
      </g>
     </g>
     <g id="line2d_14">
      <g>
       <use style="stroke:#000000;stroke-width:0.5;" x="213.113815" xlink:href="#m079eb29c3b" y="19.84252"/>
      </g>
     </g>
     <g id="text_7">
      <!-- $\mathdefault{15.0}$ -->
      <g transform="translate(204.193815 178.240167)scale(0.08 -0.08)">
       <use transform="translate(0 0.78125)" xlink:href="#DejaVuSerif-49"/>
       <use transform="translate(63.623047 0.78125)" xlink:href="#DejaVuSerif-53"/>
       <use transform="translate(127.246094 0.78125)" xlink:href="#DejaVuSerif-46"/>
       <use transform="translate(159.033203 0.78125)" xlink:href="#DejaVuSerif-48"/>
      </g>
     </g>
    </g>
    <g id="xtick_8">
     <g id="line2d_15">
      <g>
       <use style="stroke:#000000;stroke-width:0.5;" x="238.883321" xlink:href="#m442bd50bb6" y="168.661417"/>
      </g>
     </g>
     <g id="line2d_16">
      <g>
       <use style="stroke:#000000;stroke-width:0.5;" x="238.883321" xlink:href="#m079eb29c3b" y="19.84252"/>
      </g>
     </g>
     <g id="text_8">
      <!-- $\mathdefault{17.5}$ -->
      <g transform="translate(229.963321 178.240167)scale(0.08 -0.08)">
       <use transform="translate(0 0.78125)" xlink:href="#DejaVuSerif-49"/>
       <use transform="translate(63.623047 0.78125)" xlink:href="#DejaVuSerif-55"/>
       <use transform="translate(127.246094 0.78125)" xlink:href="#DejaVuSerif-46"/>
       <use transform="translate(159.033203 0.78125)" xlink:href="#DejaVuSerif-53"/>
      </g>
     </g>
    </g>
    <g id="xtick_9">
     <g id="line2d_17">
      <g>
       <use style="stroke:#000000;stroke-width:0.5;" x="264.652827" xlink:href="#m442bd50bb6" y="168.661417"/>
      </g>
     </g>
     <g id="line2d_18">
      <g>
       <use style="stroke:#000000;stroke-width:0.5;" x="264.652827" xlink:href="#m079eb29c3b" y="19.84252"/>
      </g>
     </g>
     <g id="text_9">
      <!-- $\mathdefault{20.0}$ -->
      <g transform="translate(255.732827 178.240167)scale(0.08 -0.08)">
       <use transform="translate(0 0.78125)" xlink:href="#DejaVuSerif-50"/>
       <use transform="translate(63.623047 0.78125)" xlink:href="#DejaVuSerif-48"/>
       <use transform="translate(127.246094 0.78125)" xlink:href="#DejaVuSerif-46"/>
       <use transform="translate(159.033203 0.78125)" xlink:href="#DejaVuSerif-48"/>
      </g>
     </g>
    </g>
    <g id="xtick_10">
     <g id="line2d_19">
      <defs>
       <path d="M 0 0 
L 0 -1.5 
" id="m6505013ca0" style="stroke:#000000;stroke-width:0.5;"/>
      </defs>
      <g>
       <use style="stroke:#000000;stroke-width:0.5;" x="53.342878" xlink:href="#m6505013ca0" y="168.661417"/>
      </g>
     </g>
     <g id="line2d_20">
      <defs>
       <path d="M 0 0 
L 0 1.5 
" id="m666ae41da9" style="stroke:#000000;stroke-width:0.5;"/>
      </defs>
      <g>
       <use style="stroke:#000000;stroke-width:0.5;" x="53.342878" xlink:href="#m666ae41da9" y="19.84252"/>
      </g>
     </g>
    </g>
    <g id="xtick_11">
     <g id="line2d_21">
      <g>
       <use style="stroke:#000000;stroke-width:0.5;" x="63.65068" xlink:href="#m6505013ca0" y="168.661417"/>
      </g>
     </g>
     <g id="line2d_22">
      <g>
       <use style="stroke:#000000;stroke-width:0.5;" x="63.65068" xlink:href="#m666ae41da9" y="19.84252"/>
      </g>
     </g>
    </g>
    <g id="xtick_12">
     <g id="line2d_23">
      <g>
       <use style="stroke:#000000;stroke-width:0.5;" x="68.804581" xlink:href="#m6505013ca0" y="168.661417"/>
      </g>
     </g>
     <g id="line2d_24">
      <g>
       <use style="stroke:#000000;stroke-width:0.5;" x="68.804581" xlink:href="#m666ae41da9" y="19.84252"/>
      </g>
     </g>
    </g>
    <g id="xtick_13">
     <g id="line2d_25">
      <g>
       <use style="stroke:#000000;stroke-width:0.5;" x="73.958482" xlink:href="#m6505013ca0" y="168.661417"/>
      </g>
     </g>
     <g id="line2d_26">
      <g>
       <use style="stroke:#000000;stroke-width:0.5;" x="73.958482" xlink:href="#m666ae41da9" y="19.84252"/>
      </g>
     </g>
    </g>
    <g id="xtick_14">
     <g id="line2d_27">
      <g>
       <use style="stroke:#000000;stroke-width:0.5;" x="79.112384" xlink:href="#m6505013ca0" y="168.661417"/>
      </g>
     </g>
     <g id="line2d_28">
      <g>
       <use style="stroke:#000000;stroke-width:0.5;" x="79.112384" xlink:href="#m666ae41da9" y="19.84252"/>
      </g>
     </g>
    </g>
    <g id="xtick_15">
     <g id="line2d_29">
      <g>
       <use style="stroke:#000000;stroke-width:0.5;" x="89.420186" xlink:href="#m6505013ca0" y="168.661417"/>
      </g>
     </g>
     <g id="line2d_30">
      <g>
       <use style="stroke:#000000;stroke-width:0.5;" x="89.420186" xlink:href="#m666ae41da9" y="19.84252"/>
      </g>
     </g>
    </g>
    <g id="xtick_16">
     <g id="line2d_31">
      <g>
       <use style="stroke:#000000;stroke-width:0.5;" x="94.574087" xlink:href="#m6505013ca0" y="168.661417"/>
      </g>
     </g>
     <g id="line2d_32">
      <g>
       <use style="stroke:#000000;stroke-width:0.5;" x="94.574087" xlink:href="#m666ae41da9" y="19.84252"/>
      </g>
     </g>
    </g>
    <g id="xtick_17">
     <g id="line2d_33">
      <g>
       <use style="stroke:#000000;stroke-width:0.5;" x="99.727989" xlink:href="#m6505013ca0" y="168.661417"/>
      </g>
     </g>
     <g id="line2d_34">
      <g>
       <use style="stroke:#000000;stroke-width:0.5;" x="99.727989" xlink:href="#m666ae41da9" y="19.84252"/>
      </g>
     </g>
    </g>
    <g id="xtick_18">
     <g id="line2d_35">
      <g>
       <use style="stroke:#000000;stroke-width:0.5;" x="104.88189" xlink:href="#m6505013ca0" y="168.661417"/>
      </g>
     </g>
     <g id="line2d_36">
      <g>
       <use style="stroke:#000000;stroke-width:0.5;" x="104.88189" xlink:href="#m666ae41da9" y="19.84252"/>
      </g>
     </g>
    </g>
    <g id="xtick_19">
     <g id="line2d_37">
      <g>
       <use style="stroke:#000000;stroke-width:0.5;" x="115.189692" xlink:href="#m6505013ca0" y="168.661417"/>
      </g>
     </g>
     <g id="line2d_38">
      <g>
       <use style="stroke:#000000;stroke-width:0.5;" x="115.189692" xlink:href="#m666ae41da9" y="19.84252"/>
      </g>
     </g>
    </g>
    <g id="xtick_20">
     <g id="line2d_39">
      <g>
       <use style="stroke:#000000;stroke-width:0.5;" x="120.343593" xlink:href="#m6505013ca0" y="168.661417"/>
      </g>
     </g>
     <g id="line2d_40">
      <g>
       <use style="stroke:#000000;stroke-width:0.5;" x="120.343593" xlink:href="#m666ae41da9" y="19.84252"/>
      </g>
     </g>
    </g>
    <g id="xtick_21">
     <g id="line2d_41">
      <g>
       <use style="stroke:#000000;stroke-width:0.5;" x="125.497495" xlink:href="#m6505013ca0" y="168.661417"/>
      </g>
     </g>
     <g id="line2d_42">
      <g>
       <use style="stroke:#000000;stroke-width:0.5;" x="125.497495" xlink:href="#m666ae41da9" y="19.84252"/>
      </g>
     </g>
    </g>
    <g id="xtick_22">
     <g id="line2d_43">
      <g>
       <use style="stroke:#000000;stroke-width:0.5;" x="130.651396" xlink:href="#m6505013ca0" y="168.661417"/>
      </g>
     </g>
     <g id="line2d_44">
      <g>
       <use style="stroke:#000000;stroke-width:0.5;" x="130.651396" xlink:href="#m666ae41da9" y="19.84252"/>
      </g>
     </g>
    </g>
    <g id="xtick_23">
     <g id="line2d_45">
      <g>
       <use style="stroke:#000000;stroke-width:0.5;" x="140.959198" xlink:href="#m6505013ca0" y="168.661417"/>
      </g>
     </g>
     <g id="line2d_46">
      <g>
       <use style="stroke:#000000;stroke-width:0.5;" x="140.959198" xlink:href="#m666ae41da9" y="19.84252"/>
      </g>
     </g>
    </g>
    <g id="xtick_24">
     <g id="line2d_47">
      <g>
       <use style="stroke:#000000;stroke-width:0.5;" x="146.113099" xlink:href="#m6505013ca0" y="168.661417"/>
      </g>
     </g>
     <g id="line2d_48">
      <g>
       <use style="stroke:#000000;stroke-width:0.5;" x="146.113099" xlink:href="#m666ae41da9" y="19.84252"/>
      </g>
     </g>
    </g>
    <g id="xtick_25">
     <g id="line2d_49">
      <g>
       <use style="stroke:#000000;stroke-width:0.5;" x="151.267001" xlink:href="#m6505013ca0" y="168.661417"/>
      </g>
     </g>
     <g id="line2d_50">
      <g>
       <use style="stroke:#000000;stroke-width:0.5;" x="151.267001" xlink:href="#m666ae41da9" y="19.84252"/>
      </g>
     </g>
    </g>
    <g id="xtick_26">
     <g id="line2d_51">
      <g>
       <use style="stroke:#000000;stroke-width:0.5;" x="156.420902" xlink:href="#m6505013ca0" y="168.661417"/>
      </g>
     </g>
     <g id="line2d_52">
      <g>
       <use style="stroke:#000000;stroke-width:0.5;" x="156.420902" xlink:href="#m666ae41da9" y="19.84252"/>
      </g>
     </g>
    </g>
    <g id="xtick_27">
     <g id="line2d_53">
      <g>
       <use style="stroke:#000000;stroke-width:0.5;" x="166.728704" xlink:href="#m6505013ca0" y="168.661417"/>
      </g>
     </g>
     <g id="line2d_54">
      <g>
       <use style="stroke:#000000;stroke-width:0.5;" x="166.728704" xlink:href="#m666ae41da9" y="19.84252"/>
      </g>
     </g>
    </g>
    <g id="xtick_28">
     <g id="line2d_55">
      <g>
       <use style="stroke:#000000;stroke-width:0.5;" x="171.882606" xlink:href="#m6505013ca0" y="168.661417"/>
      </g>
     </g>
     <g id="line2d_56">
      <g>
       <use style="stroke:#000000;stroke-width:0.5;" x="171.882606" xlink:href="#m666ae41da9" y="19.84252"/>
      </g>
     </g>
    </g>
    <g id="xtick_29">
     <g id="line2d_57">
      <g>
       <use style="stroke:#000000;stroke-width:0.5;" x="177.036507" xlink:href="#m6505013ca0" y="168.661417"/>
      </g>
     </g>
     <g id="line2d_58">
      <g>
       <use style="stroke:#000000;stroke-width:0.5;" x="177.036507" xlink:href="#m666ae41da9" y="19.84252"/>
      </g>
     </g>
    </g>
    <g id="xtick_30">
     <g id="line2d_59">
      <g>
       <use style="stroke:#000000;stroke-width:0.5;" x="182.190408" xlink:href="#m6505013ca0" y="168.661417"/>
      </g>
     </g>
     <g id="line2d_60">
      <g>
       <use style="stroke:#000000;stroke-width:0.5;" x="182.190408" xlink:href="#m666ae41da9" y="19.84252"/>
      </g>
     </g>
    </g>
    <g id="xtick_31">
     <g id="line2d_61">
      <g>
       <use style="stroke:#000000;stroke-width:0.5;" x="192.49821" xlink:href="#m6505013ca0" y="168.661417"/>
      </g>
     </g>
     <g id="line2d_62">
      <g>
       <use style="stroke:#000000;stroke-width:0.5;" x="192.49821" xlink:href="#m666ae41da9" y="19.84252"/>
      </g>
     </g>
    </g>
    <g id="xtick_32">
     <g id="line2d_63">
      <g>
       <use style="stroke:#000000;stroke-width:0.5;" x="197.652112" xlink:href="#m6505013ca0" y="168.661417"/>
      </g>
     </g>
     <g id="line2d_64">
      <g>
       <use style="stroke:#000000;stroke-width:0.5;" x="197.652112" xlink:href="#m666ae41da9" y="19.84252"/>
      </g>
     </g>
    </g>
    <g id="xtick_33">
     <g id="line2d_65">
      <g>
       <use style="stroke:#000000;stroke-width:0.5;" x="202.806013" xlink:href="#m6505013ca0" y="168.661417"/>
      </g>
     </g>
     <g id="line2d_66">
      <g>
       <use style="stroke:#000000;stroke-width:0.5;" x="202.806013" xlink:href="#m666ae41da9" y="19.84252"/>
      </g>
     </g>
    </g>
    <g id="xtick_34">
     <g id="line2d_67">
      <g>
       <use style="stroke:#000000;stroke-width:0.5;" x="207.959914" xlink:href="#m6505013ca0" y="168.661417"/>
      </g>
     </g>
     <g id="line2d_68">
      <g>
       <use style="stroke:#000000;stroke-width:0.5;" x="207.959914" xlink:href="#m666ae41da9" y="19.84252"/>
      </g>
     </g>
    </g>
    <g id="xtick_35">
     <g id="line2d_69">
      <g>
       <use style="stroke:#000000;stroke-width:0.5;" x="218.267717" xlink:href="#m6505013ca0" y="168.661417"/>
      </g>
     </g>
     <g id="line2d_70">
      <g>
       <use style="stroke:#000000;stroke-width:0.5;" x="218.267717" xlink:href="#m666ae41da9" y="19.84252"/>
      </g>
     </g>
    </g>
    <g id="xtick_36">
     <g id="line2d_71">
      <g>
       <use style="stroke:#000000;stroke-width:0.5;" x="223.421618" xlink:href="#m6505013ca0" y="168.661417"/>
      </g>
     </g>
     <g id="line2d_72">
      <g>
       <use style="stroke:#000000;stroke-width:0.5;" x="223.421618" xlink:href="#m666ae41da9" y="19.84252"/>
      </g>
     </g>
    </g>
    <g id="xtick_37">
     <g id="line2d_73">
      <g>
       <use style="stroke:#000000;stroke-width:0.5;" x="228.575519" xlink:href="#m6505013ca0" y="168.661417"/>
      </g>
     </g>
     <g id="line2d_74">
      <g>
       <use style="stroke:#000000;stroke-width:0.5;" x="228.575519" xlink:href="#m666ae41da9" y="19.84252"/>
      </g>
     </g>
    </g>
    <g id="xtick_38">
     <g id="line2d_75">
      <g>
       <use style="stroke:#000000;stroke-width:0.5;" x="233.72942" xlink:href="#m6505013ca0" y="168.661417"/>
      </g>
     </g>
     <g id="line2d_76">
      <g>
       <use style="stroke:#000000;stroke-width:0.5;" x="233.72942" xlink:href="#m666ae41da9" y="19.84252"/>
      </g>
     </g>
    </g>
    <g id="xtick_39">
     <g id="line2d_77">
      <g>
       <use style="stroke:#000000;stroke-width:0.5;" x="244.037223" xlink:href="#m6505013ca0" y="168.661417"/>
      </g>
     </g>
     <g id="line2d_78">
      <g>
       <use style="stroke:#000000;stroke-width:0.5;" x="244.037223" xlink:href="#m666ae41da9" y="19.84252"/>
      </g>
     </g>
    </g>
    <g id="xtick_40">
     <g id="line2d_79">
      <g>
       <use style="stroke:#000000;stroke-width:0.5;" x="249.191124" xlink:href="#m6505013ca0" y="168.661417"/>
      </g>
     </g>
     <g id="line2d_80">
      <g>
       <use style="stroke:#000000;stroke-width:0.5;" x="249.191124" xlink:href="#m666ae41da9" y="19.84252"/>
      </g>
     </g>
    </g>
    <g id="xtick_41">
     <g id="line2d_81">
      <g>
       <use style="stroke:#000000;stroke-width:0.5;" x="254.345025" xlink:href="#m6505013ca0" y="168.661417"/>
      </g>
     </g>
     <g id="line2d_82">
      <g>
       <use style="stroke:#000000;stroke-width:0.5;" x="254.345025" xlink:href="#m666ae41da9" y="19.84252"/>
      </g>
     </g>
    </g>
    <g id="xtick_42">
     <g id="line2d_83">
      <g>
       <use style="stroke:#000000;stroke-width:0.5;" x="259.498926" xlink:href="#m6505013ca0" y="168.661417"/>
      </g>
     </g>
     <g id="line2d_84">
      <g>
       <use style="stroke:#000000;stroke-width:0.5;" x="259.498926" xlink:href="#m666ae41da9" y="19.84252"/>
      </g>
     </g>
    </g>
    <g id="xtick_43">
     <g id="line2d_85">
      <g>
       <use style="stroke:#000000;stroke-width:0.5;" x="269.806729" xlink:href="#m6505013ca0" y="168.661417"/>
      </g>
     </g>
     <g id="line2d_86">
      <g>
       <use style="stroke:#000000;stroke-width:0.5;" x="269.806729" xlink:href="#m666ae41da9" y="19.84252"/>
      </g>
     </g>
    </g>
    <g id="xtick_44">
     <g id="line2d_87">
      <g>
       <use style="stroke:#000000;stroke-width:0.5;" x="274.96063" xlink:href="#m6505013ca0" y="168.661417"/>
      </g>
     </g>
     <g id="line2d_88">
      <g>
       <use style="stroke:#000000;stroke-width:0.5;" x="274.96063" xlink:href="#m666ae41da9" y="19.84252"/>
      </g>
     </g>
    </g>
    <g id="text_10">
     <!-- x values -->
     <g transform="translate(141.015428 191.502355)scale(0.1 -0.1)">
      <defs>
       <path d="M 29.109375 31.6875 
L 39.984375 46.6875 
L 33.015625 46.6875 
L 33.015625 51.90625 
L 52.984375 51.90625 
L 52.984375 46.6875 
L 46.09375 46.6875 
L 32.171875 27.484375 
L 48.390625 5.171875 
L 55.171875 5.171875 
L 55.171875 0 
L 31.203125 0 
L 31.203125 5.171875 
L 37.796875 5.171875 
L 26.515625 20.703125 
L 15.1875 5.171875 
L 21.921875 5.171875 
L 21.921875 0 
L 2.203125 0 
L 2.203125 5.171875 
L 9.078125 5.171875 
L 23.390625 24.90625 
L 7.625 46.6875 
L 1.21875 46.6875 
L 1.21875 51.90625 
L 24.421875 51.90625 
L 24.421875 46.6875 
L 18.21875 46.6875 
z
" id="DejaVuSerif-120"/>
       <path id="DejaVuSerif-32"/>
       <path d="M 24.703125 0 
L 5.609375 46.6875 
L -0.296875 46.6875 
L -0.296875 51.90625 
L 23.578125 51.90625 
L 23.578125 46.6875 
L 15.28125 46.6875 
L 29.890625 10.984375 
L 44.484375 46.6875 
L 36.71875 46.6875 
L 36.71875 51.90625 
L 56.203125 51.90625 
L 56.203125 46.6875 
L 50.390625 46.6875 
L 31.296875 0 
z
" id="DejaVuSerif-118"/>
       <path d="M 39.796875 16.3125 
L 39.796875 27.296875 
L 28.21875 27.296875 
Q 21.53125 27.296875 18.25 24.40625 
Q 14.984375 21.53125 14.984375 15.578125 
Q 14.984375 10.15625 18.296875 6.984375 
Q 21.625 3.8125 27.296875 3.8125 
Q 32.90625 3.8125 36.34375 7.28125 
Q 39.796875 10.75 39.796875 16.3125 
z
M 48.78125 32.421875 
L 48.78125 5.171875 
L 56.78125 5.171875 
L 56.78125 0 
L 39.796875 0 
L 39.796875 5.609375 
Q 36.8125 2 32.90625 0.28125 
Q 29 -1.421875 23.78125 -1.421875 
Q 15.140625 -1.421875 10.0625 3.171875 
Q 4.984375 7.765625 4.984375 15.578125 
Q 4.984375 23.640625 10.796875 28.078125 
Q 16.609375 32.515625 27.203125 32.515625 
L 39.796875 32.515625 
L 39.796875 36.078125 
Q 39.796875 42 36.203125 45.234375 
Q 32.625 48.484375 26.125 48.484375 
Q 20.75 48.484375 17.578125 46.046875 
Q 14.40625 43.609375 13.625 38.8125 
L 8.984375 38.8125 
L 8.984375 49.3125 
Q 13.671875 51.3125 18.09375 52.3125 
Q 22.515625 53.328125 26.703125 53.328125 
Q 37.5 53.328125 43.140625 47.96875 
Q 48.78125 42.625 48.78125 32.421875 
z
" id="DejaVuSerif-97"/>
       <path d="M 20.515625 5.171875 
L 29 5.171875 
L 29 0 
L 2.875 0 
L 2.875 5.171875 
L 11.53125 5.171875 
L 11.53125 70.796875 
L 2.875 70.796875 
L 2.875 75.984375 
L 20.515625 75.984375 
z
" id="DejaVuSerif-108"/>
       <path d="M 35.40625 51.90625 
L 52.203125 51.90625 
L 52.203125 5.171875 
L 60.6875 5.171875 
L 60.6875 0 
L 43.21875 0 
L 43.21875 9.1875 
Q 40.71875 4 36.765625 1.28125 
Q 32.8125 -1.421875 27.59375 -1.421875 
Q 18.953125 -1.421875 14.875 3.484375 
Q 10.796875 8.40625 10.796875 18.890625 
L 10.796875 46.6875 
L 2.6875 46.6875 
L 2.6875 51.90625 
L 19.828125 51.90625 
L 19.828125 21.6875 
Q 19.828125 12.203125 22.140625 8.6875 
Q 24.46875 5.171875 30.421875 5.171875 
Q 36.671875 5.171875 39.9375 9.765625 
Q 43.21875 14.359375 43.21875 23.09375 
L 43.21875 46.6875 
L 35.40625 46.6875 
z
" id="DejaVuSerif-117"/>
       <path d="M 54.203125 25 
L 15.484375 25 
L 15.484375 24.609375 
Q 15.484375 14.109375 19.4375 8.765625 
Q 23.390625 3.421875 31.109375 3.421875 
Q 37.015625 3.421875 40.796875 6.515625 
Q 44.578125 9.625 46.09375 15.71875 
L 53.328125 15.71875 
Q 51.171875 7.171875 45.375 2.875 
Q 39.59375 -1.421875 30.171875 -1.421875 
Q 18.796875 -1.421875 11.890625 6.078125 
Q 4.984375 13.578125 4.984375 25.984375 
Q 4.984375 38.28125 11.765625 45.796875 
Q 18.5625 53.328125 29.59375 53.328125 
Q 41.359375 53.328125 47.65625 46.0625 
Q 53.953125 38.8125 54.203125 25 
z
M 43.609375 30.171875 
Q 43.3125 39.265625 39.765625 43.875 
Q 36.234375 48.484375 29.59375 48.484375 
Q 23.390625 48.484375 19.828125 43.84375 
Q 16.265625 39.203125 15.484375 30.171875 
z
" id="DejaVuSerif-101"/>
       <path d="M 5.609375 2.875 
L 5.609375 14.984375 
L 10.796875 14.984375 
Q 10.984375 9.1875 14.421875 6.296875 
Q 17.875 3.421875 24.609375 3.421875 
Q 30.671875 3.421875 33.84375 5.6875 
Q 37.015625 7.953125 37.015625 12.3125 
Q 37.015625 15.71875 34.6875 17.8125 
Q 32.375 19.921875 24.90625 22.3125 
L 18.40625 24.515625 
Q 11.71875 26.65625 8.71875 29.875 
Q 5.71875 33.109375 5.71875 38.09375 
Q 5.71875 45.21875 10.9375 49.265625 
Q 16.15625 53.328125 25.390625 53.328125 
Q 29.5 53.328125 34.03125 52.25 
Q 38.578125 51.171875 43.40625 49.125 
L 43.40625 37.796875 
L 38.234375 37.796875 
Q 38.03125 42.828125 34.703125 45.65625 
Q 31.390625 48.484375 25.6875 48.484375 
Q 20.015625 48.484375 17.109375 46.484375 
Q 14.203125 44.484375 14.203125 40.484375 
Q 14.203125 37.203125 16.40625 35.21875 
Q 18.609375 33.25 25.203125 31.203125 
L 32.328125 29 
Q 39.703125 26.703125 42.9375 23.265625 
Q 46.1875 19.828125 46.1875 14.40625 
Q 46.1875 7.03125 40.546875 2.796875 
Q 34.90625 -1.421875 25 -1.421875 
Q 19.96875 -1.421875 15.1875 -0.34375 
Q 10.40625 0.734375 5.609375 2.875 
z
" id="DejaVuSerif-115"/>
      </defs>
      <use xlink:href="#DejaVuSerif-120"/>
      <use x="56.396484" xlink:href="#DejaVuSerif-32"/>
      <use x="88.183594" xlink:href="#DejaVuSerif-118"/>
      <use x="144.677734" xlink:href="#DejaVuSerif-97"/>
      <use x="204.296875" xlink:href="#DejaVuSerif-108"/>
      <use x="236.279297" xlink:href="#DejaVuSerif-117"/>
      <use x="300.683594" xlink:href="#DejaVuSerif-101"/>
      <use x="359.863281" xlink:href="#DejaVuSerif-115"/>
     </g>
    </g>
   </g>
   <g id="matplotlib.axis_2">
    <g id="ytick_1">
     <g id="line2d_89">
      <defs>
       <path d="M 0 0 
L 5 0 
" id="m044f0e3bfa" style="stroke:#000000;stroke-width:0.5;"/>
      </defs>
      <g>
       <use style="stroke:#000000;stroke-width:0.5;" x="48.188976" xlink:href="#m044f0e3bfa" y="161.897089"/>
      </g>
     </g>
     <g id="line2d_90">
      <defs>
       <path d="M 0 0 
L -5 0 
" id="m95a8a694ca" style="stroke:#000000;stroke-width:0.5;"/>
      </defs>
      <g>
       <use style="stroke:#000000;stroke-width:0.5;" x="274.96063" xlink:href="#m95a8a694ca" y="161.897089"/>
      </g>
     </g>
     <g id="text_11">
      <!-- $\mathdefault{−1.00}$ -->
      <g transform="translate(20.128976 164.936464)scale(0.08 -0.08)">
       <defs>
        <path d="M 10.59375 35.296875 
L 73.1875 35.296875 
L 73.1875 27.390625 
L 10.59375 27.390625 
z
" id="DejaVuSerif-8722"/>
       </defs>
       <use transform="translate(0 0.78125)" xlink:href="#DejaVuSerif-8722"/>
       <use transform="translate(83.789062 0.78125)" xlink:href="#DejaVuSerif-49"/>
       <use transform="translate(147.412109 0.78125)" xlink:href="#DejaVuSerif-46"/>
       <use transform="translate(179.199219 0.78125)" xlink:href="#DejaVuSerif-48"/>
       <use transform="translate(242.822266 0.78125)" xlink:href="#DejaVuSerif-48"/>
      </g>
     </g>
    </g>
    <g id="ytick_2">
     <g id="line2d_91">
      <g>
       <use style="stroke:#000000;stroke-width:0.5;" x="48.188976" xlink:href="#m044f0e3bfa" y="144.985829"/>
      </g>
     </g>
     <g id="line2d_92">
      <g>
       <use style="stroke:#000000;stroke-width:0.5;" x="274.96063" xlink:href="#m95a8a694ca" y="144.985829"/>
      </g>
     </g>
     <g id="text_12">
      <!-- $\mathdefault{−0.75}$ -->
      <g transform="translate(20.128976 148.025204)scale(0.08 -0.08)">
       <use transform="translate(0 0.78125)" xlink:href="#DejaVuSerif-8722"/>
       <use transform="translate(83.789062 0.78125)" xlink:href="#DejaVuSerif-48"/>
       <use transform="translate(147.412109 0.78125)" xlink:href="#DejaVuSerif-46"/>
       <use transform="translate(179.199219 0.78125)" xlink:href="#DejaVuSerif-55"/>
       <use transform="translate(242.822266 0.78125)" xlink:href="#DejaVuSerif-53"/>
      </g>
     </g>
    </g>
    <g id="ytick_3">
     <g id="line2d_93">
      <g>
       <use style="stroke:#000000;stroke-width:0.5;" x="48.188976" xlink:href="#m044f0e3bfa" y="128.07457"/>
      </g>
     </g>
     <g id="line2d_94">
      <g>
       <use style="stroke:#000000;stroke-width:0.5;" x="274.96063" xlink:href="#m95a8a694ca" y="128.07457"/>
      </g>
     </g>
     <g id="text_13">
      <!-- $\mathdefault{−0.50}$ -->
      <g transform="translate(20.128976 131.113945)scale(0.08 -0.08)">
       <use transform="translate(0 0.78125)" xlink:href="#DejaVuSerif-8722"/>
       <use transform="translate(83.789062 0.78125)" xlink:href="#DejaVuSerif-48"/>
       <use transform="translate(147.412109 0.78125)" xlink:href="#DejaVuSerif-46"/>
       <use transform="translate(179.199219 0.78125)" xlink:href="#DejaVuSerif-53"/>
       <use transform="translate(242.822266 0.78125)" xlink:href="#DejaVuSerif-48"/>
      </g>
     </g>
    </g>
    <g id="ytick_4">
     <g id="line2d_95">
      <g>
       <use style="stroke:#000000;stroke-width:0.5;" x="48.188976" xlink:href="#m044f0e3bfa" y="111.163311"/>
      </g>
     </g>
     <g id="line2d_96">
      <g>
       <use style="stroke:#000000;stroke-width:0.5;" x="274.96063" xlink:href="#m95a8a694ca" y="111.163311"/>
      </g>
     </g>
     <g id="text_14">
      <!-- $\mathdefault{−0.25}$ -->
      <g transform="translate(20.368976 114.202686)scale(0.08 -0.08)">
       <use transform="translate(0 0.78125)" xlink:href="#DejaVuSerif-8722"/>
       <use transform="translate(83.789062 0.78125)" xlink:href="#DejaVuSerif-48"/>
       <use transform="translate(147.412109 0.78125)" xlink:href="#DejaVuSerif-46"/>
       <use transform="translate(176.574219 0.78125)" xlink:href="#DejaVuSerif-50"/>
       <use transform="translate(240.197266 0.78125)" xlink:href="#DejaVuSerif-53"/>
      </g>
     </g>
    </g>
    <g id="ytick_5">
     <g id="line2d_97">
      <g>
       <use style="stroke:#000000;stroke-width:0.5;" x="48.188976" xlink:href="#m044f0e3bfa" y="94.252052"/>
      </g>
     </g>
     <g id="line2d_98">
      <g>
       <use style="stroke:#000000;stroke-width:0.5;" x="274.96063" xlink:href="#m95a8a694ca" y="94.252052"/>
      </g>
     </g>
     <g id="text_15">
      <!-- $\mathdefault{0.00}$ -->
      <g transform="translate(26.848976 97.291427)scale(0.08 -0.08)">
       <use transform="translate(0 0.78125)" xlink:href="#DejaVuSerif-48"/>
       <use transform="translate(63.623047 0.78125)" xlink:href="#DejaVuSerif-46"/>
       <use transform="translate(95.410156 0.78125)" xlink:href="#DejaVuSerif-48"/>
       <use transform="translate(159.033203 0.78125)" xlink:href="#DejaVuSerif-48"/>
      </g>
     </g>
    </g>
    <g id="ytick_6">
     <g id="line2d_99">
      <g>
       <use style="stroke:#000000;stroke-width:0.5;" x="48.188976" xlink:href="#m044f0e3bfa" y="77.340793"/>
      </g>
     </g>
     <g id="line2d_100">
      <g>
       <use style="stroke:#000000;stroke-width:0.5;" x="274.96063" xlink:href="#m95a8a694ca" y="77.340793"/>
      </g>
     </g>
     <g id="text_16">
      <!-- $\mathdefault{0.25}$ -->
      <g transform="translate(27.008976 80.380168)scale(0.08 -0.08)">
       <use transform="translate(0 0.78125)" xlink:href="#DejaVuSerif-48"/>
       <use transform="translate(63.623047 0.78125)" xlink:href="#DejaVuSerif-46"/>
       <use transform="translate(92.785156 0.78125)" xlink:href="#DejaVuSerif-50"/>
       <use transform="translate(156.408203 0.78125)" xlink:href="#DejaVuSerif-53"/>
      </g>
     </g>
    </g>
    <g id="ytick_7">
     <g id="line2d_101">
      <g>
       <use style="stroke:#000000;stroke-width:0.5;" x="48.188976" xlink:href="#m044f0e3bfa" y="60.429533"/>
      </g>
     </g>
     <g id="line2d_102">
      <g>
       <use style="stroke:#000000;stroke-width:0.5;" x="274.96063" xlink:href="#m95a8a694ca" y="60.429533"/>
      </g>
     </g>
     <g id="text_17">
      <!-- $\mathdefault{0.50}$ -->
      <g transform="translate(26.848976 63.468908)scale(0.08 -0.08)">
       <use transform="translate(0 0.78125)" xlink:href="#DejaVuSerif-48"/>
       <use transform="translate(63.623047 0.78125)" xlink:href="#DejaVuSerif-46"/>
       <use transform="translate(95.410156 0.78125)" xlink:href="#DejaVuSerif-53"/>
       <use transform="translate(159.033203 0.78125)" xlink:href="#DejaVuSerif-48"/>
      </g>
     </g>
    </g>
    <g id="ytick_8">
     <g id="line2d_103">
      <g>
       <use style="stroke:#000000;stroke-width:0.5;" x="48.188976" xlink:href="#m044f0e3bfa" y="43.518274"/>
      </g>
     </g>
     <g id="line2d_104">
      <g>
       <use style="stroke:#000000;stroke-width:0.5;" x="274.96063" xlink:href="#m95a8a694ca" y="43.518274"/>
      </g>
     </g>
     <g id="text_18">
      <!-- $\mathdefault{0.75}$ -->
      <g transform="translate(26.848976 46.557649)scale(0.08 -0.08)">
       <use transform="translate(0 0.78125)" xlink:href="#DejaVuSerif-48"/>
       <use transform="translate(63.623047 0.78125)" xlink:href="#DejaVuSerif-46"/>
       <use transform="translate(95.410156 0.78125)" xlink:href="#DejaVuSerif-55"/>
       <use transform="translate(159.033203 0.78125)" xlink:href="#DejaVuSerif-53"/>
      </g>
     </g>
    </g>
    <g id="ytick_9">
     <g id="line2d_105">
      <g>
       <use style="stroke:#000000;stroke-width:0.5;" x="48.188976" xlink:href="#m044f0e3bfa" y="26.607015"/>
      </g>
     </g>
     <g id="line2d_106">
      <g>
       <use style="stroke:#000000;stroke-width:0.5;" x="274.96063" xlink:href="#m95a8a694ca" y="26.607015"/>
      </g>
     </g>
     <g id="text_19">
      <!-- $\mathdefault{1.00}$ -->
      <g transform="translate(26.848976 29.64639)scale(0.08 -0.08)">
       <use transform="translate(0 0.78125)" xlink:href="#DejaVuSerif-49"/>
       <use transform="translate(63.623047 0.78125)" xlink:href="#DejaVuSerif-46"/>
       <use transform="translate(95.410156 0.78125)" xlink:href="#DejaVuSerif-48"/>
       <use transform="translate(159.033203 0.78125)" xlink:href="#DejaVuSerif-48"/>
      </g>
     </g>
    </g>
    <g id="ytick_10">
     <g id="line2d_107">
      <defs>
       <path d="M 0 0 
L 1.5 0 
" id="m6d7f389705" style="stroke:#000000;stroke-width:0.5;"/>
      </defs>
      <g>
       <use style="stroke:#000000;stroke-width:0.5;" x="48.188976" xlink:href="#m6d7f389705" y="165.279341"/>
      </g>
     </g>
     <g id="line2d_108">
      <defs>
       <path d="M 0 0 
L -1.5 0 
" id="m1a6215455a" style="stroke:#000000;stroke-width:0.5;"/>
      </defs>
      <g>
       <use style="stroke:#000000;stroke-width:0.5;" x="274.96063" xlink:href="#m1a6215455a" y="165.279341"/>
      </g>
     </g>
    </g>
    <g id="ytick_11">
     <g id="line2d_109">
      <g>
       <use style="stroke:#000000;stroke-width:0.5;" x="48.188976" xlink:href="#m6d7f389705" y="158.514837"/>
      </g>
     </g>
     <g id="line2d_110">
      <g>
       <use style="stroke:#000000;stroke-width:0.5;" x="274.96063" xlink:href="#m1a6215455a" y="158.514837"/>
      </g>
     </g>
    </g>
    <g id="ytick_12">
     <g id="line2d_111">
      <g>
       <use style="stroke:#000000;stroke-width:0.5;" x="48.188976" xlink:href="#m6d7f389705" y="155.132585"/>
      </g>
     </g>
     <g id="line2d_112">
      <g>
       <use style="stroke:#000000;stroke-width:0.5;" x="274.96063" xlink:href="#m1a6215455a" y="155.132585"/>
      </g>
     </g>
    </g>
    <g id="ytick_13">
     <g id="line2d_113">
      <g>
       <use style="stroke:#000000;stroke-width:0.5;" x="48.188976" xlink:href="#m6d7f389705" y="151.750333"/>
      </g>
     </g>
     <g id="line2d_114">
      <g>
       <use style="stroke:#000000;stroke-width:0.5;" x="274.96063" xlink:href="#m1a6215455a" y="151.750333"/>
      </g>
     </g>
    </g>
    <g id="ytick_14">
     <g id="line2d_115">
      <g>
       <use style="stroke:#000000;stroke-width:0.5;" x="48.188976" xlink:href="#m6d7f389705" y="148.368081"/>
      </g>
     </g>
     <g id="line2d_116">
      <g>
       <use style="stroke:#000000;stroke-width:0.5;" x="274.96063" xlink:href="#m1a6215455a" y="148.368081"/>
      </g>
     </g>
    </g>
    <g id="ytick_15">
     <g id="line2d_117">
      <g>
       <use style="stroke:#000000;stroke-width:0.5;" x="48.188976" xlink:href="#m6d7f389705" y="141.603578"/>
      </g>
     </g>
     <g id="line2d_118">
      <g>
       <use style="stroke:#000000;stroke-width:0.5;" x="274.96063" xlink:href="#m1a6215455a" y="141.603578"/>
      </g>
     </g>
    </g>
    <g id="ytick_16">
     <g id="line2d_119">
      <g>
       <use style="stroke:#000000;stroke-width:0.5;" x="48.188976" xlink:href="#m6d7f389705" y="138.221326"/>
      </g>
     </g>
     <g id="line2d_120">
      <g>
       <use style="stroke:#000000;stroke-width:0.5;" x="274.96063" xlink:href="#m1a6215455a" y="138.221326"/>
      </g>
     </g>
    </g>
    <g id="ytick_17">
     <g id="line2d_121">
      <g>
       <use style="stroke:#000000;stroke-width:0.5;" x="48.188976" xlink:href="#m6d7f389705" y="134.839074"/>
      </g>
     </g>
     <g id="line2d_122">
      <g>
       <use style="stroke:#000000;stroke-width:0.5;" x="274.96063" xlink:href="#m1a6215455a" y="134.839074"/>
      </g>
     </g>
    </g>
    <g id="ytick_18">
     <g id="line2d_123">
      <g>
       <use style="stroke:#000000;stroke-width:0.5;" x="48.188976" xlink:href="#m6d7f389705" y="131.456822"/>
      </g>
     </g>
     <g id="line2d_124">
      <g>
       <use style="stroke:#000000;stroke-width:0.5;" x="274.96063" xlink:href="#m1a6215455a" y="131.456822"/>
      </g>
     </g>
    </g>
    <g id="ytick_19">
     <g id="line2d_125">
      <g>
       <use style="stroke:#000000;stroke-width:0.5;" x="48.188976" xlink:href="#m6d7f389705" y="124.692318"/>
      </g>
     </g>
     <g id="line2d_126">
      <g>
       <use style="stroke:#000000;stroke-width:0.5;" x="274.96063" xlink:href="#m1a6215455a" y="124.692318"/>
      </g>
     </g>
    </g>
    <g id="ytick_20">
     <g id="line2d_127">
      <g>
       <use style="stroke:#000000;stroke-width:0.5;" x="48.188976" xlink:href="#m6d7f389705" y="121.310067"/>
      </g>
     </g>
     <g id="line2d_128">
      <g>
       <use style="stroke:#000000;stroke-width:0.5;" x="274.96063" xlink:href="#m1a6215455a" y="121.310067"/>
      </g>
     </g>
    </g>
    <g id="ytick_21">
     <g id="line2d_129">
      <g>
       <use style="stroke:#000000;stroke-width:0.5;" x="48.188976" xlink:href="#m6d7f389705" y="117.927815"/>
      </g>
     </g>
     <g id="line2d_130">
      <g>
       <use style="stroke:#000000;stroke-width:0.5;" x="274.96063" xlink:href="#m1a6215455a" y="117.927815"/>
      </g>
     </g>
    </g>
    <g id="ytick_22">
     <g id="line2d_131">
      <g>
       <use style="stroke:#000000;stroke-width:0.5;" x="48.188976" xlink:href="#m6d7f389705" y="114.545563"/>
      </g>
     </g>
     <g id="line2d_132">
      <g>
       <use style="stroke:#000000;stroke-width:0.5;" x="274.96063" xlink:href="#m1a6215455a" y="114.545563"/>
      </g>
     </g>
    </g>
    <g id="ytick_23">
     <g id="line2d_133">
      <g>
       <use style="stroke:#000000;stroke-width:0.5;" x="48.188976" xlink:href="#m6d7f389705" y="107.781059"/>
      </g>
     </g>
     <g id="line2d_134">
      <g>
       <use style="stroke:#000000;stroke-width:0.5;" x="274.96063" xlink:href="#m1a6215455a" y="107.781059"/>
      </g>
     </g>
    </g>
    <g id="ytick_24">
     <g id="line2d_135">
      <g>
       <use style="stroke:#000000;stroke-width:0.5;" x="48.188976" xlink:href="#m6d7f389705" y="104.398807"/>
      </g>
     </g>
     <g id="line2d_136">
      <g>
       <use style="stroke:#000000;stroke-width:0.5;" x="274.96063" xlink:href="#m1a6215455a" y="104.398807"/>
      </g>
     </g>
    </g>
    <g id="ytick_25">
     <g id="line2d_137">
      <g>
       <use style="stroke:#000000;stroke-width:0.5;" x="48.188976" xlink:href="#m6d7f389705" y="101.016556"/>
      </g>
     </g>
     <g id="line2d_138">
      <g>
       <use style="stroke:#000000;stroke-width:0.5;" x="274.96063" xlink:href="#m1a6215455a" y="101.016556"/>
      </g>
     </g>
    </g>
    <g id="ytick_26">
     <g id="line2d_139">
      <g>
       <use style="stroke:#000000;stroke-width:0.5;" x="48.188976" xlink:href="#m6d7f389705" y="97.634304"/>
      </g>
     </g>
     <g id="line2d_140">
      <g>
       <use style="stroke:#000000;stroke-width:0.5;" x="274.96063" xlink:href="#m1a6215455a" y="97.634304"/>
      </g>
     </g>
    </g>
    <g id="ytick_27">
     <g id="line2d_141">
      <g>
       <use style="stroke:#000000;stroke-width:0.5;" x="48.188976" xlink:href="#m6d7f389705" y="90.8698"/>
      </g>
     </g>
     <g id="line2d_142">
      <g>
       <use style="stroke:#000000;stroke-width:0.5;" x="274.96063" xlink:href="#m1a6215455a" y="90.8698"/>
      </g>
     </g>
    </g>
    <g id="ytick_28">
     <g id="line2d_143">
      <g>
       <use style="stroke:#000000;stroke-width:0.5;" x="48.188976" xlink:href="#m6d7f389705" y="87.487548"/>
      </g>
     </g>
     <g id="line2d_144">
      <g>
       <use style="stroke:#000000;stroke-width:0.5;" x="274.96063" xlink:href="#m1a6215455a" y="87.487548"/>
      </g>
     </g>
    </g>
    <g id="ytick_29">
     <g id="line2d_145">
      <g>
       <use style="stroke:#000000;stroke-width:0.5;" x="48.188976" xlink:href="#m6d7f389705" y="84.105296"/>
      </g>
     </g>
     <g id="line2d_146">
      <g>
       <use style="stroke:#000000;stroke-width:0.5;" x="274.96063" xlink:href="#m1a6215455a" y="84.105296"/>
      </g>
     </g>
    </g>
    <g id="ytick_30">
     <g id="line2d_147">
      <g>
       <use style="stroke:#000000;stroke-width:0.5;" x="48.188976" xlink:href="#m6d7f389705" y="80.723044"/>
      </g>
     </g>
     <g id="line2d_148">
      <g>
       <use style="stroke:#000000;stroke-width:0.5;" x="274.96063" xlink:href="#m1a6215455a" y="80.723044"/>
      </g>
     </g>
    </g>
    <g id="ytick_31">
     <g id="line2d_149">
      <g>
       <use style="stroke:#000000;stroke-width:0.5;" x="48.188976" xlink:href="#m6d7f389705" y="73.958541"/>
      </g>
     </g>
     <g id="line2d_150">
      <g>
       <use style="stroke:#000000;stroke-width:0.5;" x="274.96063" xlink:href="#m1a6215455a" y="73.958541"/>
      </g>
     </g>
    </g>
    <g id="ytick_32">
     <g id="line2d_151">
      <g>
       <use style="stroke:#000000;stroke-width:0.5;" x="48.188976" xlink:href="#m6d7f389705" y="70.576289"/>
      </g>
     </g>
     <g id="line2d_152">
      <g>
       <use style="stroke:#000000;stroke-width:0.5;" x="274.96063" xlink:href="#m1a6215455a" y="70.576289"/>
      </g>
     </g>
    </g>
    <g id="ytick_33">
     <g id="line2d_153">
      <g>
       <use style="stroke:#000000;stroke-width:0.5;" x="48.188976" xlink:href="#m6d7f389705" y="67.194037"/>
      </g>
     </g>
     <g id="line2d_154">
      <g>
       <use style="stroke:#000000;stroke-width:0.5;" x="274.96063" xlink:href="#m1a6215455a" y="67.194037"/>
      </g>
     </g>
    </g>
    <g id="ytick_34">
     <g id="line2d_155">
      <g>
       <use style="stroke:#000000;stroke-width:0.5;" x="48.188976" xlink:href="#m6d7f389705" y="63.811785"/>
      </g>
     </g>
     <g id="line2d_156">
      <g>
       <use style="stroke:#000000;stroke-width:0.5;" x="274.96063" xlink:href="#m1a6215455a" y="63.811785"/>
      </g>
     </g>
    </g>
    <g id="ytick_35">
     <g id="line2d_157">
      <g>
       <use style="stroke:#000000;stroke-width:0.5;" x="48.188976" xlink:href="#m6d7f389705" y="57.047282"/>
      </g>
     </g>
     <g id="line2d_158">
      <g>
       <use style="stroke:#000000;stroke-width:0.5;" x="274.96063" xlink:href="#m1a6215455a" y="57.047282"/>
      </g>
     </g>
    </g>
    <g id="ytick_36">
     <g id="line2d_159">
      <g>
       <use style="stroke:#000000;stroke-width:0.5;" x="48.188976" xlink:href="#m6d7f389705" y="53.66503"/>
      </g>
     </g>
     <g id="line2d_160">
      <g>
       <use style="stroke:#000000;stroke-width:0.5;" x="274.96063" xlink:href="#m1a6215455a" y="53.66503"/>
      </g>
     </g>
    </g>
    <g id="ytick_37">
     <g id="line2d_161">
      <g>
       <use style="stroke:#000000;stroke-width:0.5;" x="48.188976" xlink:href="#m6d7f389705" y="50.282778"/>
      </g>
     </g>
     <g id="line2d_162">
      <g>
       <use style="stroke:#000000;stroke-width:0.5;" x="274.96063" xlink:href="#m1a6215455a" y="50.282778"/>
      </g>
     </g>
    </g>
    <g id="ytick_38">
     <g id="line2d_163">
      <g>
       <use style="stroke:#000000;stroke-width:0.5;" x="48.188976" xlink:href="#m6d7f389705" y="46.900526"/>
      </g>
     </g>
     <g id="line2d_164">
      <g>
       <use style="stroke:#000000;stroke-width:0.5;" x="274.96063" xlink:href="#m1a6215455a" y="46.900526"/>
      </g>
     </g>
    </g>
    <g id="ytick_39">
     <g id="line2d_165">
      <g>
       <use style="stroke:#000000;stroke-width:0.5;" x="48.188976" xlink:href="#m6d7f389705" y="40.136022"/>
      </g>
     </g>
     <g id="line2d_166">
      <g>
       <use style="stroke:#000000;stroke-width:0.5;" x="274.96063" xlink:href="#m1a6215455a" y="40.136022"/>
      </g>
     </g>
    </g>
    <g id="ytick_40">
     <g id="line2d_167">
      <g>
       <use style="stroke:#000000;stroke-width:0.5;" x="48.188976" xlink:href="#m6d7f389705" y="36.753771"/>
      </g>
     </g>
     <g id="line2d_168">
      <g>
       <use style="stroke:#000000;stroke-width:0.5;" x="274.96063" xlink:href="#m1a6215455a" y="36.753771"/>
      </g>
     </g>
    </g>
    <g id="ytick_41">
     <g id="line2d_169">
      <g>
       <use style="stroke:#000000;stroke-width:0.5;" x="48.188976" xlink:href="#m6d7f389705" y="33.371519"/>
      </g>
     </g>
     <g id="line2d_170">
      <g>
       <use style="stroke:#000000;stroke-width:0.5;" x="274.96063" xlink:href="#m1a6215455a" y="33.371519"/>
      </g>
     </g>
    </g>
    <g id="ytick_42">
     <g id="line2d_171">
      <g>
       <use style="stroke:#000000;stroke-width:0.5;" x="48.188976" xlink:href="#m6d7f389705" y="29.989267"/>
      </g>
     </g>
     <g id="line2d_172">
      <g>
       <use style="stroke:#000000;stroke-width:0.5;" x="274.96063" xlink:href="#m1a6215455a" y="29.989267"/>
      </g>
     </g>
    </g>
    <g id="ytick_43">
     <g id="line2d_173">
      <g>
       <use style="stroke:#000000;stroke-width:0.5;" x="48.188976" xlink:href="#m6d7f389705" y="23.224763"/>
      </g>
     </g>
     <g id="line2d_174">
      <g>
       <use style="stroke:#000000;stroke-width:0.5;" x="274.96063" xlink:href="#m1a6215455a" y="23.224763"/>
      </g>
     </g>
    </g>
    <g id="text_20">
     <!-- y values -->
     <g transform="translate(13.907101 114.816812)rotate(-90)scale(0.1 -0.1)">
      <defs>
       <path d="M 21.578125 -9.515625 
L 25 -0.875 
L 5.609375 46.6875 
L -0.296875 46.6875 
L -0.296875 51.90625 
L 23.578125 51.90625 
L 23.578125 46.6875 
L 15.28125 46.6875 
L 29.890625 10.984375 
L 44.484375 46.6875 
L 36.71875 46.6875 
L 36.71875 51.90625 
L 56.203125 51.90625 
L 56.203125 46.6875 
L 50.390625 46.6875 
L 26.609375 -11.71875 
Q 24.171875 -17.78125 21.1875 -20 
Q 18.21875 -22.21875 12.796875 -22.21875 
Q 10.5 -22.21875 8.078125 -21.828125 
Q 5.671875 -21.4375 3.21875 -20.703125 
L 3.21875 -10.796875 
L 7.8125 -10.796875 
Q 8.109375 -14.109375 9.5 -15.546875 
Q 10.890625 -17 13.8125 -17 
Q 16.5 -17 18.140625 -15.5 
Q 19.78125 -14.015625 21.578125 -9.515625 
z
" id="DejaVuSerif-121"/>
      </defs>
      <use xlink:href="#DejaVuSerif-121"/>
      <use x="56.494141" xlink:href="#DejaVuSerif-32"/>
      <use x="88.28125" xlink:href="#DejaVuSerif-118"/>
      <use x="144.775391" xlink:href="#DejaVuSerif-97"/>
      <use x="204.394531" xlink:href="#DejaVuSerif-108"/>
      <use x="236.376953" xlink:href="#DejaVuSerif-117"/>
      <use x="300.78125" xlink:href="#DejaVuSerif-101"/>
      <use x="359.960938" xlink:href="#DejaVuSerif-115"/>
     </g>
    </g>
    <g id="text_21">
     <!-- $\times\mathdefault{10^{+4}}\mathdefault{}$ -->
     <g transform="translate(48.188976 16.84252)scale(0.08 -0.08)">
      <defs>
       <path d="M 70.125 53.71875 
L 47.796875 31.296875 
L 70.125 8.984375 
L 64.3125 3.078125 
L 41.890625 25.484375 
L 19.484375 3.078125 
L 13.71875 8.984375 
L 35.984375 31.296875 
L 13.71875 53.71875 
L 19.484375 59.625 
L 41.890625 37.203125 
L 64.3125 59.625 
z
" id="DejaVuSans-215"/>
       <path d="M 45.796875 62.703125 
L 45.796875 35.296875 
L 73.1875 35.296875 
L 73.1875 27.390625 
L 45.796875 27.390625 
L 45.796875 0 
L 37.984375 0 
L 37.984375 27.390625 
L 10.59375 27.390625 
L 10.59375 35.296875 
L 37.984375 35.296875 
L 37.984375 62.703125 
z
" id="DejaVuSerif-43"/>
       <path d="M 34.90625 24.703125 
L 34.90625 63.484375 
L 10.015625 24.703125 
z
M 56.390625 0 
L 23.1875 0 
L 23.1875 5.171875 
L 34.90625 5.171875 
L 34.90625 19.484375 
L 3.078125 19.484375 
L 3.078125 24.8125 
L 35.015625 74.21875 
L 44.671875 74.21875 
L 44.671875 24.703125 
L 58.59375 24.703125 
L 58.59375 19.484375 
L 44.671875 19.484375 
L 44.671875 5.171875 
L 56.390625 5.171875 
z
" id="DejaVuSerif-52"/>
      </defs>
      <use transform="translate(0 0.7125)" xlink:href="#DejaVuSans-215"/>
      <use transform="translate(83.789062 0.7125)" xlink:href="#DejaVuSerif-49"/>
      <use transform="translate(147.412109 0.7125)" xlink:href="#DejaVuSerif-48"/>
      <use transform="translate(211.943516 37.046875)scale(0.7)" xlink:href="#DejaVuSerif-43"/>
      <use transform="translate(270.595859 37.046875)scale(0.7)" xlink:href="#DejaVuSerif-52"/>
     </g>
    </g>
   </g>
   <g id="line2d_175">
    <path clip-path="url(#p3977d26249)" d="M 58.496779 94.252052 
L 62.633689 67.826506 
L 64.702145 55.944835 
L 66.7706 45.60055 
L 68.14957 39.766536 
L 69.528541 34.90619 
L 70.907511 31.106367 
L 71.596996 29.626148 
L 72.286481 28.434971 
L 72.975966 27.538165 
L 73.665451 26.939741 
L 74.354936 26.642375 
L 75.044422 26.647396 
L 75.733907 26.954784 
L 76.423392 27.563161 
L 77.112877 28.469809 
L 77.802362 29.670671 
L 78.491847 31.160378 
L 79.870817 34.978408 
L 81.249788 39.855671 
L 82.628758 45.705009 
L 84.007728 52.421893 
L 86.076183 63.857582 
L 88.834124 80.91591 
L 95.728975 124.914546 
L 97.79743 136.317838 
L 99.1764 143.007774 
L 100.555371 148.826435 
L 101.934341 153.66984 
L 103.313311 157.451436 
L 104.002796 158.922161 
L 104.692281 160.103646 
L 105.381766 160.990606 
L 106.071252 161.579073 
L 106.760737 161.866417 
L 107.450222 161.851352 
L 108.139707 161.533946 
L 108.829192 160.915617 
L 109.518677 159.999132 
L 110.208162 158.78859 
L 110.897647 157.289404 
L 112.276618 153.453185 
L 113.655588 148.559029 
L 115.034558 142.694396 
L 116.413528 135.964087 
L 118.481984 124.512284 
L 121.239924 107.440932 
L 128.134775 63.455772 
L 130.203231 52.068763 
L 131.582201 45.39235 
L 132.961171 39.589071 
L 134.340141 34.762631 
L 135.719111 30.999279 
L 136.408597 29.538056 
L 137.098082 28.366269 
L 137.787567 27.48916 
L 138.477052 26.910651 
L 139.166537 26.633331 
L 139.856022 26.658439 
L 140.545507 26.985864 
L 141.234992 27.61414 
L 141.924477 28.540457 
L 142.613963 29.760674 
L 143.303448 31.269332 
L 144.682418 35.123721 
L 146.061388 40.034746 
L 147.440358 45.914646 
L 148.819329 52.658346 
L 150.887784 64.126206 
L 153.645724 81.210498 
L 160.540575 125.181966 
L 162.609031 136.552636 
L 163.988001 143.215492 
L 165.366971 149.003361 
L 166.745941 153.812813 
L 168.124912 157.557901 
L 168.814397 159.009616 
L 169.503882 160.171699 
L 170.193367 161.038953 
L 170.882852 161.607499 
L 171.572337 161.874795 
L 172.261822 161.839643 
L 172.951308 161.502203 
L 173.640793 160.863982 
L 174.330278 159.927836 
L 175.019763 158.697952 
L 175.709248 157.179829 
L 177.088218 153.307289 
L 178.467188 148.37942 
L 179.846159 142.484282 
L 181.225129 135.727224 
L 183.293584 124.243363 
L 186.051525 107.146216 
L 192.946376 63.188656 
L 195.014831 51.834381 
L 196.393801 45.185114 
L 197.772772 39.412684 
L 199.151742 34.620245 
L 200.530712 30.893439 
L 201.220197 29.451239 
L 201.909682 28.298865 
L 202.599167 27.44147 
L 203.288652 26.882889 
L 203.978138 26.625621 
L 204.667623 26.670815 
L 205.357108 27.01827 
L 206.046593 27.666432 
L 206.736078 28.612401 
L 207.425563 29.851948 
L 208.115048 31.379527 
L 209.494018 35.270199 
L 210.872989 40.214889 
L 212.251959 46.125235 
L 213.630929 52.895618 
L 215.699384 64.395423 
L 218.457325 81.505342 
L 224.662691 121.367169 
L 226.731146 133.175771 
L 228.799602 143.422245 
L 230.178572 149.179208 
L 231.557542 153.954611 
L 232.936512 157.663117 
L 233.625997 159.095793 
L 234.315483 160.238453 
L 235.004968 161.085984 
L 235.694453 161.634598 
L 236.383938 161.881839 
L 237.073423 161.826602 
L 237.762908 161.469134 
L 238.452393 160.811034 
L 239.141878 159.855245 
L 239.831363 158.606043 
L 240.520849 157.069014 
L 241.899819 153.160229 
L 243.278789 148.198743 
L 244.657759 142.273218 
L 246.036729 135.489544 
L 248.105185 123.973851 
L 250.863125 106.851245 
L 257.068491 66.999419 
L 259.136947 55.205605 
L 261.205402 44.978845 
L 262.584372 39.237378 
L 263.963342 34.479034 
L 264.652827 32.495837 
L 264.652827 32.495837 
" style="fill:none;stroke:#1f77b4;stroke-linecap:square;stroke-width:1.5;"/>
   </g>
   <g id="line2d_176">
    <path clip-path="url(#p3977d26249)" d="M 58.496779 26.607015 
L 59.186264 26.758288 
L 59.875749 27.211431 
L 60.565234 27.964416 
L 61.254719 29.013877 
L 61.944204 30.355119 
L 63.323175 33.887673 
L 64.702145 38.498952 
L 66.081115 44.106551 
L 67.460085 50.610261 
L 69.528541 61.787923 
L 71.596996 74.268471 
L 75.733907 101.102503 
L 79.181332 122.813122 
L 81.249788 134.462557 
L 82.628758 141.358693 
L 84.007728 147.413023 
L 85.386698 152.517355 
L 86.765668 156.580473 
L 87.455154 158.198122 
L 88.144639 159.529769 
L 88.834124 160.569458 
L 89.523609 161.312538 
L 90.213094 161.755687 
L 90.902579 161.896922 
L 91.592064 161.735612 
L 92.281549 161.272477 
L 92.971034 160.50959 
L 93.66052 159.450363 
L 94.350005 158.099533 
L 95.728975 154.548507 
L 97.107945 149.91997 
L 98.486915 144.296636 
L 99.865886 137.778994 
L 101.934341 126.584349 
L 104.002796 114.092111 
L 108.139707 87.252214 
L 111.587132 65.554919 
L 113.655588 53.920883 
L 115.034558 47.03775 
L 116.413528 40.998346 
L 117.792498 35.910599 
L 119.171469 31.865425 
L 119.860954 30.257159 
L 120.550439 28.935114 
L 121.239924 27.905202 
L 121.929409 27.172031 
L 122.618894 26.738878 
L 123.308379 26.607682 
L 123.997865 26.779029 
L 124.68735 27.252152 
L 125.376835 28.024937 
L 126.06632 29.093926 
L 126.755805 30.454338 
L 128.134775 34.023818 
L 129.513745 38.669589 
L 130.892716 44.308632 
L 132.271686 50.840173 
L 134.340141 62.051745 
L 136.408597 74.555613 
L 140.545507 101.401242 
L 143.992933 123.085106 
L 146.061388 134.703686 
L 147.440358 141.573782 
L 148.819329 147.598229 
L 150.198299 152.669368 
L 151.577269 156.696577 
L 152.266754 158.295451 
L 152.956239 159.607888 
L 153.645724 160.628018 
L 154.335209 161.351277 
L 155.024695 161.774432 
L 155.71418 161.895588 
L 156.403665 161.714206 
L 157.09315 161.231095 
L 157.782635 160.448417 
L 158.47212 159.369672 
L 159.161605 157.999684 
L 160.540575 154.411768 
L 161.919546 149.748784 
L 163.298516 144.094062 
L 164.677486 137.548653 
L 166.745941 126.32021 
L 168.814397 113.804773 
L 172.951308 86.953545 
L 176.398733 65.283219 
L 178.467188 53.680152 
L 179.846159 46.823126 
L 181.225129 40.813666 
L 182.604099 35.759161 
L 183.983069 31.749937 
L 184.672554 30.160461 
L 185.36204 28.857639 
L 186.051525 27.847296 
L 186.74101 27.133953 
L 187.430495 26.720799 
L 188.11998 26.609682 
L 188.809465 26.8011 
L 189.49895 27.294195 
L 190.188435 28.086763 
L 190.87792 29.175259 
L 191.567406 30.554815 
L 192.946376 34.16115 
L 194.325346 38.841323 
L 195.704316 44.511697 
L 197.083286 51.070942 
L 199.151742 62.316201 
L 201.220197 74.843144 
L 206.046593 106.177075 
L 208.804533 123.356522 
L 210.872989 134.944017 
L 212.251959 141.787939 
L 213.630929 147.782383 
L 215.009899 152.820229 
L 216.38887 156.811449 
L 217.078355 158.391518 
L 217.76784 159.684719 
L 218.457325 160.685269 
L 219.14681 161.388693 
L 219.836295 161.791845 
L 220.52578 161.892921 
L 221.215265 161.69147 
L 221.904751 161.188392 
L 222.594236 160.385938 
L 223.283721 159.287696 
L 223.973206 157.898579 
L 225.352176 154.273843 
L 226.731146 149.576505 
L 228.110117 143.890506 
L 229.489087 137.317458 
L 231.557542 126.055438 
L 233.625997 113.517051 
L 238.452393 82.179235 
L 241.210334 65.012089 
L 243.278789 53.440221 
L 244.657759 46.609438 
L 246.036729 40.630039 
L 247.4157 35.608877 
L 248.79467 31.635681 
L 249.484155 30.065027 
L 250.17364 28.781453 
L 250.863125 27.7907 
L 251.55261 27.097199 
L 252.242095 26.704051 
L 252.931581 26.613016 
L 253.621066 26.8245 
L 254.310551 27.337558 
L 255.000036 28.149894 
L 255.689521 29.257876 
L 256.379006 30.656548 
L 257.757976 34.299667 
L 259.136947 39.014148 
L 260.515917 44.715742 
L 261.894887 51.302561 
L 263.963342 62.581287 
L 264.652827 66.647326 
L 264.652827 66.647326 
" style="fill:none;stroke:#ff7f0e;stroke-linecap:square;stroke-width:1.5;"/>
   </g>
   <g id="patch_3">
    <path d="M 48.188976 168.661417 
L 48.188976 19.84252 
" style="fill:none;stroke:#000000;stroke-linecap:square;stroke-linejoin:miter;stroke-width:0.8;"/>
   </g>
   <g id="patch_4">
    <path d="M 274.96063 168.661417 
L 274.96063 19.84252 
" style="fill:none;stroke:#000000;stroke-linecap:square;stroke-linejoin:miter;stroke-width:0.8;"/>
   </g>
   <g id="patch_5">
    <path d="M 48.188976 168.661417 
L 274.96063 168.661417 
" style="fill:none;stroke:#000000;stroke-linecap:square;stroke-linejoin:miter;stroke-width:0.8;"/>
   </g>
   <g id="patch_6">
    <path d="M 48.188976 19.84252 
L 274.96063 19.84252 
" style="fill:none;stroke:#000000;stroke-linecap:square;stroke-linejoin:miter;stroke-width:0.8;"/>
   </g>
   <g id="legend_1">
    <g id="patch_7">
     <path d="M 230.35938 107.194469 
L 269.36063 107.194469 
Q 270.96063 107.194469 270.96063 105.594469 
L 270.96063 82.909469 
Q 270.96063 81.309469 269.36063 81.309469 
L 230.35938 81.309469 
Q 228.75938 81.309469 228.75938 82.909469 
L 228.75938 105.594469 
Q 228.75938 107.194469 230.35938 107.194469 
z
" style="fill:#ffffff;opacity:0.8;stroke:#cccccc;stroke-linejoin:miter;"/>
    </g>
    <g id="line2d_177">
     <path d="M 231.95938 87.788219 
L 247.95938 87.788219 
" style="fill:none;stroke:#1f77b4;stroke-linecap:square;stroke-width:1.5;"/>
    </g>
    <g id="line2d_178"/>
    <g id="text_22">
     <!-- sin -->
     <g transform="translate(254.35938 90.588219)scale(0.08 -0.08)">
      <defs>
       <path d="M 9.71875 68.015625 
Q 9.71875 70.265625 11.34375 71.921875 
Q 12.984375 73.578125 15.28125 73.578125 
Q 17.53125 73.578125 19.15625 71.921875 
Q 20.796875 70.265625 20.796875 68.015625 
Q 20.796875 65.71875 19.1875 64.109375 
Q 17.578125 62.5 15.28125 62.5 
Q 12.984375 62.5 11.34375 64.109375 
Q 9.71875 65.71875 9.71875 68.015625 
z
M 21.1875 5.171875 
L 29.6875 5.171875 
L 29.6875 0 
L 3.609375 0 
L 3.609375 5.171875 
L 12.203125 5.171875 
L 12.203125 46.6875 
L 3.609375 46.6875 
L 3.609375 51.90625 
L 21.1875 51.90625 
z
" id="DejaVuSerif-105"/>
       <path d="M 4.109375 0 
L 4.109375 5.171875 
L 12.203125 5.171875 
L 12.203125 46.6875 
L 3.609375 46.6875 
L 3.609375 51.90625 
L 21.1875 51.90625 
L 21.1875 42.671875 
Q 23.6875 47.953125 27.65625 50.640625 
Q 31.640625 53.328125 36.921875 53.328125 
Q 45.515625 53.328125 49.5625 48.390625 
Q 53.609375 43.453125 53.609375 33.015625 
L 53.609375 5.171875 
L 61.625 5.171875 
L 61.625 0 
L 36.8125 0 
L 36.8125 5.171875 
L 44.578125 5.171875 
L 44.578125 30.171875 
Q 44.578125 39.703125 42.234375 43.234375 
Q 39.890625 46.78125 33.984375 46.78125 
Q 27.734375 46.78125 24.453125 42.203125 
Q 21.1875 37.640625 21.1875 28.90625 
L 21.1875 5.171875 
L 29 5.171875 
L 29 0 
z
" id="DejaVuSerif-110"/>
      </defs>
      <use xlink:href="#DejaVuSerif-115"/>
      <use x="51.318359" xlink:href="#DejaVuSerif-105"/>
      <use x="83.300781" xlink:href="#DejaVuSerif-110"/>
     </g>
    </g>
    <g id="line2d_179">
     <path d="M 231.95938 99.530719 
L 247.95938 99.530719 
" style="fill:none;stroke:#ff7f0e;stroke-linecap:square;stroke-width:1.5;"/>
    </g>
    <g id="line2d_180"/>
    <g id="text_23">
     <!-- cos -->
     <g transform="translate(254.35938 102.330719)scale(0.08 -0.08)">
      <defs>
       <path d="M 51.421875 15.578125 
Q 49.515625 7.28125 44.09375 2.921875 
Q 38.671875 -1.421875 30.078125 -1.421875 
Q 18.75 -1.421875 11.859375 6.078125 
Q 4.984375 13.578125 4.984375 25.984375 
Q 4.984375 38.421875 11.859375 45.875 
Q 18.75 53.328125 30.078125 53.328125 
Q 35.015625 53.328125 39.890625 52.171875 
Q 44.78125 51.03125 49.703125 48.6875 
L 49.703125 35.40625 
L 44.484375 35.40625 
Q 43.453125 42.234375 40.015625 45.359375 
Q 36.578125 48.484375 30.171875 48.484375 
Q 22.90625 48.484375 19.1875 42.84375 
Q 15.484375 37.203125 15.484375 25.984375 
Q 15.484375 14.75 19.171875 9.078125 
Q 22.859375 3.421875 30.171875 3.421875 
Q 35.984375 3.421875 39.453125 6.4375 
Q 42.921875 9.46875 44.1875 15.578125 
z
" id="DejaVuSerif-99"/>
       <path d="M 30.078125 3.421875 
Q 37.3125 3.421875 40.984375 9.125 
Q 44.671875 14.84375 44.671875 25.984375 
Q 44.671875 37.109375 40.984375 42.796875 
Q 37.3125 48.484375 30.078125 48.484375 
Q 22.859375 48.484375 19.171875 42.796875 
Q 15.484375 37.109375 15.484375 25.984375 
Q 15.484375 14.84375 19.1875 9.125 
Q 22.90625 3.421875 30.078125 3.421875 
z
M 30.078125 -1.421875 
Q 18.75 -1.421875 11.859375 6.078125 
Q 4.984375 13.578125 4.984375 25.984375 
Q 4.984375 38.375 11.84375 45.84375 
Q 18.703125 53.328125 30.078125 53.328125 
Q 41.453125 53.328125 48.3125 45.84375 
Q 55.171875 38.375 55.171875 25.984375 
Q 55.171875 13.578125 48.3125 6.078125 
Q 41.453125 -1.421875 30.078125 -1.421875 
z
" id="DejaVuSerif-111"/>
      </defs>
      <use xlink:href="#DejaVuSerif-99"/>
      <use x="56.005859" xlink:href="#DejaVuSerif-111"/>
      <use x="116.210938" xlink:href="#DejaVuSerif-115"/>
     </g>
    </g>
   </g>
  </g>
 </g>
 <defs>
  <clipPath id="p3977d26249">
   <rect height="148.818898" width="226.771654" x="48.188976" y="19.84252"/>
  </clipPath>
 </defs>
</svg>
